<?xml version="1.0" encoding="UTF-8" standalone="no"?>
<!-- Created with Inkscape (http://www.inkscape.org/) -->

<svg
   width="360"
   height="128"
   viewBox="0 0 95.249995 33.866667"
   version="1.1"
   id="svg1"
   inkscape:version="1.3 (0e150ed6c4, 2023-07-21)"
   sodipodi:docname="logo.svg"
   inkscape:export-filename="logo.png"
   inkscape:export-xdpi="96"
   inkscape:export-ydpi="96"
   xmlns:inkscape="http://www.inkscape.org/namespaces/inkscape"
   xmlns:sodipodi="http://sodipodi.sourceforge.net/DTD/sodipodi-0.dtd"
   xmlns="http://www.w3.org/2000/svg"
   xmlns:svg="http://www.w3.org/2000/svg">
  <sodipodi:namedview
     id="namedview1"
     pagecolor="#505050"
     bordercolor="#eeeeee"
     borderopacity="1"
     inkscape:showpageshadow="0"
     inkscape:pageopacity="0"
     inkscape:pagecheckerboard="0"
     inkscape:deskcolor="#484848"
     inkscape:document-units="px"
     inkscape:zoom="0.42777779"
     inkscape:cx="501.42856"
     inkscape:cy="127.40259"
     inkscape:window-width="2560"
     inkscape:window-height="1351"
     inkscape:window-x="-9"
     inkscape:window-y="-9"
     inkscape:window-maximized="1"
     inkscape:current-layer="layer1" />
  <defs
     id="defs1" />
  <g
     inkscape:label="Layer 1"
     inkscape:groupmode="layer"
     id="layer1">
    <g
       id="g10"
       style="fill:#ffffff;fill-opacity:1;stroke-width:0.234464"
       transform="matrix(4.2650305,0,0,4.2650305,-1945.9405,-1411.5396)">
      <path
         style="fill:#ffffff;fill-opacity:1;stroke-width:0.234464"
         d="m 459.7514,338.19539 c -0.13543,-0.0116 -0.27061,-0.0641 -0.37858,-0.147 -0.0913,-0.0701 -1.70811,-1.69552 -1.7519,-1.76119 -0.0869,-0.13035 -0.12643,-0.26384 -0.12542,-0.42381 0.001,-0.15758 0.0536,-0.31844 0.14278,-0.43665 0.0186,-0.0247 0.16195,-0.17212 0.31853,-0.32765 l 0.28467,-0.28279 0.79016,0.78983 0.79015,0.78984 0.26413,-0.26402 0.26413,-0.26401 -0.55826,-0.55914 c -0.42856,-0.42925 -0.56764,-0.57382 -0.59867,-0.62232 -0.16166,-0.2527 -0.15672,-0.57336 0.0127,-0.82164 0.0334,-0.049 2.18538,-2.20986 2.20076,-2.20986 0.0154,0 2.16744,2.16086 2.20084,2.20986 0.13918,0.20417 0.16936,0.46804 0.0793,0.69306 -0.0551,0.13753 -0.0723,0.15694 -0.66528,0.7509 l -0.55825,0.55914 0.26412,0.26401 0.26413,0.26402 0.79015,-0.78984 0.79016,-0.78983 0.28468,0.28279 c 0.15657,0.15553 0.2999,0.30297 0.31852,0.32765 0.0461,0.061 0.10151,0.17978 0.12375,0.26497 0.0372,0.14236 0.021,0.33777 -0.0391,0.47379 -0.0576,0.13018 -0.0699,0.14345 -0.93298,1.00835 -0.45592,0.45684 -0.8547,0.8504 -0.88618,0.87456 -0.24695,0.18961 -0.60728,0.19978 -0.86875,0.0245 -0.0234,-0.0157 -0.29502,-0.28044 -0.60368,-0.5884 l -0.56121,-0.55992 -0.56573,0.56417 c -0.4256,0.42441 -0.57913,0.57215 -0.61983,0.5964 -0.15097,0.0899 -0.2994,0.12477 -0.46975,0.11021 z m 1.92157,-3.65048 0.26187,-0.26198 -0.26413,-0.26402 -0.26412,-0.26402 -0.26413,0.26402 -0.26413,0.26402 0.26187,0.26198 c 0.14403,0.14408 0.2639,0.26197 0.26639,0.26197 0.002,0 0.12235,-0.11789 0.26638,-0.26197 z"
         id="path302"
         sodipodi:nodetypes="sssssscccccsscssssccccccscssssscsssscccccsss" />
      <g
         id="g8"
         style="fill:#ffffff;fill-opacity:1;stroke-width:0.620143"
         transform="matrix(0.37808219,0,0,0.37808219,312.82531,209.05123)">
        <text
           xml:space="preserve"
           style="font-weight:bold;font-size:8.10483px;line-height:1.65;font-family:Poppins;-inkscape-font-specification:'Poppins Bold';text-orientation:upright;fill:#ffffff;fill-opacity:1;stroke-width:0.8204;stroke-linecap:round;stroke-linejoin:round;stroke-miterlimit:1"
           x="409.77911"
           y="339.39401"
           id="text5"><tspan
             sodipodi:role="line"
             id="tspan5"
             style="fill:#ffffff;fill-opacity:1;stroke-width:0.8204"
             x="409.77911"
             y="339.39401">SEFAS</tspan></text>
        <g
           id="g7"
           transform="translate(75.785331)"
           style="fill:#ffffff;fill-opacity:1;stroke-width:0.620143">
          <text
             xml:space="preserve"
             style="font-weight:bold;font-size:8.10483px;line-height:1.65;font-family:Poppins;-inkscape-font-specification:'Poppins Bold';text-orientation:upright;fill:#ffffff;fill-opacity:1;stroke-width:0.8204;stroke-linecap:round;stroke-linejoin:round;stroke-miterlimit:1"
             x="328.76648"
             y="332.16708"
             id="text6"><tspan
               sodipodi:role="line"
               id="tspan6"
               style="fill:#ffffff;fill-opacity:1;stroke-width:0.8204"
               x="328.76648"
               y="332.16708">CREATE</tspan></text>
          <text
             xml:space="preserve"
             style="font-weight:bold;font-size:2.58817px;line-height:1.65;font-family:Poppins;-inkscape-font-specification:'Poppins Bold';text-orientation:upright;fill:#ffffff;fill-opacity:1;stroke-width:0.8204;stroke-linecap:round;stroke-linejoin:round;stroke-miterlimit:1"
             x="330.81784"
             y="335.44028"
             id="text7"><tspan
               sodipodi:role="line"
               id="tspan7"
               style="fill:#ffffff;fill-opacity:1;stroke-width:0.8204"
               x="330.81784"
               y="335.44028">BY</tspan></text>
        </g>
      </g>
    </g>
    <rect
       style="fill:#0000ff;fill-opacity:1;stroke:#f9f9f9;stroke-width:0;stroke-linecap:square;stroke-miterlimit:1"
       id="rect1"
       width="285.75"
       height="295.03094"
       x="-306.50522"
       y="-53.380192"
       rx="26.458332"
       ry="26.458332"
       inkscape:export-filename=".\rect1.png"
       inkscape:export-xdpi="96"
       inkscape:export-ydpi="96" />
    <path
       style="fill:#ffffff;fill-opacity:1;stroke-width:0.999998"
       d="m -196.78758,159.59632 c -2.71227,-0.23232 -5.41955,-1.28374 -7.58188,-2.94399 -1.82847,-1.4039 -34.20856,-33.95642 -35.08555,-35.2716 -1.74035,-2.61054 -2.53203,-5.28396 -2.5118,-8.48771 0.02,-3.15587 1.07345,-6.37744 2.85948,-8.74485 0.3725,-0.49464 3.24339,-3.44707 6.37924,-6.561892 l 5.70113,-5.663475 15.82465,15.818037 15.82444,15.81824 5.28977,-5.28757 5.28977,-5.28736 -11.18035,-11.19798 c -8.58283,-8.596645 -11.36821,-11.491976 -11.98965,-12.46329 -3.23759,-5.060865 -3.13865,-11.48276 0.25438,-16.4551 0.66887,-0.981331 43.76691,-44.257187 44.07493,-44.257187 0.30837,0 43.40764,43.275856 44.07654,44.257187 2.78738,4.088936 3.3918,9.373505 1.58816,13.880009 -1.1035,2.754331 -1.44797,3.14306 -13.32367,15.038381 l -11.18015,11.19798 5.28957,5.28736 5.28977,5.28757 15.82445,-15.81824 15.82465,-15.818037 5.701334,5.663475 c 3.13564,3.114822 6.00613,6.067622 6.37903,6.561892 0.92326,1.22166 2.03296,3.60048 2.47838,5.30659 0.74501,2.85107 0.42058,6.76457 -0.78309,9.48867 -1.15356,2.60713 -1.3999,2.87289 -18.684934,20.19437 -9.13077,9.1492 -17.11719,17.03108 -17.74765,17.51493 -4.9457,3.79735 -12.16208,4.00103 -17.39858,0.49066 -0.46859,-0.31442 -5.90841,-5.61641 -12.08998,-11.78396 l -11.23943,-11.21361 -11.32997,11.29872 c -8.52355,8.49972 -11.59831,11.45853 -12.41341,11.94419 -3.02351,1.80044 -5.99613,2.49878 -9.40776,2.20719 z m 38.48356,-73.108683 5.24451,-5.246709 -5.28977,-5.287569 -5.28957,-5.287564 -5.28977,5.287564 -5.28977,5.287569 5.2445,5.246709 c 2.88452,2.885512 5.28517,5.246508 5.33504,5.246508 0.0401,0 2.45032,-2.360996 5.33483,-5.246508 z"
       id="path302-4"
       sodipodi:nodetypes="sssssscccccsscssssccccccscssssscsssscccccsss" />
  </g>
</svg>
